<?xml version="1.0" encoding="UTF-8"?>
  <svg xmlns="http://www.w3.org/2000/svg" viewBox="0 0 1920 770">
    <style>
      .dd-gold {
        fill: #f0b405;
      }
      .dd-red {
        fill: #dc0000;
      }

      @media (prefers-color-scheme: dark) {
        .dd-gold {
          fill: #f2bc4f;;
        }
        .dd-red {
          fill: #ff6b6b;
        }
        .dd-type {
          fill: white;
        }
      }
    </style>
    <path
      d="M28.37,212.2557v332.8607c0,15.68-12.69,28.3801-28.37,28.3801V191.5656c9.21,7.23,18.67,14.14,28.37,20.6901ZM71.04,237.9557v292.9406c15.68,0,28.38-12.7,28.38-28.3801v-250.5505c-9.63-4.36-19.1-9.04-28.38-14.01ZM142.09,268.8458v219.3605c15.66,0,28.37-12.7,28.37-28.3801v-182.2504c-7.37-1.94-20.92-6.03-28.37-8.73ZM243.03,446.7362c-3.84-32.8001-10.49-86.5302-4.53-155.7103-7.8-.87-18.53-2.76-26.61-4.23-6.1,71.6201-.15,126.6402,4.43,166.2503,0,0,12.39-3.93,26.71-6.31ZM571.62,212.2557v332.8607c0,15.68,12.7,28.3801,28.38,28.3801V191.5656c-9.21,7.23-18.67,14.14-28.38,20.6901ZM500.58,251.9658v250.5505c0,15.68,12.7,28.3801,28.38,28.3801V237.9558c-9.29,4.97-18.75,9.65-28.38,14.01ZM429.53,277.5758v182.2504c0,15.68,12.72,28.3801,28.38,28.3801v-219.3605c-7.46,2.7-21,6.79-28.38,8.73ZM383.68,453.0462c4.58-39.6101,10.53-94.6302,4.43-166.2503-8.08,1.47-18.81,3.36-26.61,4.23,5.96,69.1801-.7,122.9103-4.54,155.7103,14.33,2.38,26.72,6.31,26.72,6.31Z"
      class="dd-red"
    />
    <path
      d="M162.24,686.4298c-15.08-.29-27.3-12.62-27.34-27.7301v-29.3201l-47.87,43.9801c-10.02-11.22-9.35-28.5501,1.6-38.8701l22.92-21.38h-50.27c.14-7.24,3.03-14.01,8.15-19.13,5.25-5.24,12.24-8.15,19.67-8.15h52.61l68.54-66.6801c9.71-9.46,10.76-12.55,10.83-22.16,10.06-4.45,16.89-6.16,25.5-7.8v7.39c0,17.44-.59,25.08-15.4,39.4901-15.22,14.8-60.22,58.6001-60.22,58.6001l25.56,10.23c7.09,2.32,12.82,7.25,16.19,13.88,3.26,6.45,3.89,13.77,1.79,20.6701l-52.26-20.08v67.0602h0ZM300,770c37.33,0,77.53-7.46,107.54-19.9401l19.63-8.16s-6.34-6.42-15.09-15c-49.66-48.6901-63.66-97.5002-51.75-162.1403-13.4-12.91-16.45-16.18-21.85-24.67-10.89,48.6201-22.28,123.3103,38.33,190.7204-22.91,6.72-50.82,11.81-76.81,11.81s-53.9-5.09-76.81-11.81c60.61-67.4101,49.22-142.1003,38.33-190.7204-5.4,8.49-8.45,11.76-21.85,24.67,11.91,64.6401-2.09,113.4502-51.76,162.1403-8.74,8.58-15.08,15-15.08,15l19.63,8.16c30.01,12.48,70.21,19.9401,107.54,19.9401ZM437.75,686.4298c15.09-.29,27.31-12.62,27.35-27.7301v-29.3201l47.87,43.9901c10.01-11.23,9.35-28.5601-1.6-38.8801l-22.93-21.38h50.27c-.13-7.24-3.02-14.01-8.14-19.13-5.26-5.24-12.24-8.15-19.68-8.15h-52.6l-68.54-66.6801c-9.71-9.46-10.76-12.55-10.84-22.16-10.05-4.45-16.89-6.16-25.5-7.8v7.39c0,17.44.6,25.08,15.41,39.4901,15.21,14.8,60.22,58.6001,60.22,58.6001l-25.56,10.23c-7.09,2.32-12.82,7.25-16.19,13.88-3.26,6.45-3.9,13.77-1.79,20.6801l52.25-20.09v67.0601Z"
      class="dd-gold"
    />
    <path
      class="dd-type"
      d="M366.47,129.5487c6.2,28.4001,12.03,58.0701,15.17,94.9902-8.75,2.18-18.39,3.4-28.15,3.98-2.67-35.1001-8.65-65.0301-14.73-92.9202-2.47-11.27-4.8-21.93-6.73-31.6401-5.04-25.1901-.05-42.1401,15.34-54.2001l-49.38-18.59c-11.55-4.57-21.05-1.65-29.55,7.55l-2.04,2.12-6.69-2.08c-2.99-.92-8.68-2.74-17.1-2.74-7.72,0-14.22,7.49-14.22,17.01v21.89c12.91,0,23.73,1.47,31.62,5.68,9.05,4.84,16.18,13.22,16.18,28.5701,0,28.5801-21.68,81.0602-29.23,119.5003-10.21-.67-18.08-1.71-28.33-3.91,7.08-38.1901,28.32-86.0802,28.32-108.9402,0-13.25-11.97-13.25-26.47-13.25h-20.46v-51.0401c0-12.35,3.25-25.1101,12.56-33.2101,7.99-6.95,16.55-9.54,26.7-9.54,8.6,0,13.73,1.7,19.17,2.7,17.7-13.95,31.87-14,50.54-6.47l96.22,40.4601-4.51,1.79s-48.34,18.01-40.85,51.1501c2.12,9.41,4.18,19.98,6.62,31.1401ZM85.66,17.4184C38.36,17.4184,0,55.7585,0,103.0686v46.1101c9.2,7.24,18.66,14.14,28.37,20.69v-66.8001c0-31.6401,25.65-57.2801,57.29-57.2801h42.24c7.82,0,14.92-3.17,20.06-8.31,5.14-5.12,8.31-12.23,8.31-20.06h-70.61ZM194.2,192.7988c-80.93-23.4601-94.78-38.4501-94.78-72.7702v-33.0001c-15.68,0-28.38,12.7-28.38,28.3801v8.8c0,47.4701,17.62,69.2301,116.01,94.5802,2.1-9.68,3.69-15.76,7.15-25.99ZM443.73,17.418c0,7.83,3.17,14.9405,8.31,20.0605,5.14,5.14,12.24,8.31,20.06,8.31h42.24c31.64,0,57.28,25.6401,57.28,57.2801v66.8001c9.71-6.55,19.17-13.45,28.38-20.69v-46.1101c0-47.3101-38.36-85.6502-85.66-85.6502l-70.61-.0004ZM412.72,218.7888c98.4-25.3501,116.24-47.1101,116.24-94.5802v-8.8c0-15.68-12.71-28.3801-28.38-28.3801v33.0001c0,33.7601-13.46,48.8201-90.92,71.6301,1.31,8.88,2.34,18.16,3.06,27.1301Z"
    />
    <g class="dd-type">
      <path
        d="M902.0339,102.0174c6.5247,5.7021,9.7868,14.4004,9.7868,26.0996,0,16.2002-5.7019,27.7139-17.099,34.5381-11.401,6.8271-27.3755,10.2373-47.9236,10.2373h-46.7981V17.4178h40.7236c42.8959,0,64.3473,13.2012,64.3473,39.5996,0,9.1514-2.7772,16.6152-8.3244,22.3877-5.5511,5.7764-12.3746,9.4883-20.4744,11.1377,10.6485,1.9512,19.2366,5.7754,25.7618,11.4746ZM829.6986,39.242v42.0752h18.2244c8.2473,0,14.7724-1.835,19.5745-5.5127,4.7987-3.6738,7.1994-9.1123,7.1994-16.3125,0-7.498-2.5136-12.7471-7.5368-15.75-5.0272-2.998-12.8633-4.5-23.5118-4.5h-13.9497ZM872.1097,145.6678c5.7727-3.2979,8.6623-9.5244,8.6623-18.6758,0-8.8486-2.7387-15.2227-8.2121-19.125-5.4773-3.8984-12.937-5.8496-22.3869-5.8496h-20.4744v48.5996h17.3246c10.9474,0,19.3108-1.6484,25.0865-4.9492Z"
      />
      <path
        d="M1031.0644,172.8924h-24.9742l-1.5747-16.6504c-4.3524,6.75-9.4884,11.7773-15.412,15.0752-5.927,3.2979-12.937,4.9502-21.0368,4.9502-10.652,0-18.8641-3.2627-24.6368-9.7871-5.7757-6.5254-8.6618-15.5605-8.6618-27.1133V53.867h28.7988v81.9004c0,6.75,1.1601,11.5527,3.4872,14.4004,2.3241,2.8506,6.0364,4.2744,11.1373,4.2744,9.1471,0,17.1732-5.625,24.0743-16.875V53.867h28.7988v119.0254Z"
      />
      <path
        d="M1152.4467,60.0545c5.9236,6.3779,8.8869,15.2656,8.8869,26.6631v86.1748h-28.7988v-81.6748c0-7.0488-1.2377-11.999-3.7123-14.8506-2.475-2.8477-6.1135-4.2744-10.9122-4.2744-4.95,0-9.4147,1.54-13.3872,4.6123-3.9759,3.0762-7.8396,7.5371-11.587,13.3877v82.7998h-28.7988V53.867h24.9737l2.2499,15.5254c9.7487-12.5996,21.8244-18.9004,36.2238-18.9004,10.6485,0,18.9344,3.1895,24.8619,9.5625Z"
      />
      <path
        d="M1292.7278,6.1678v166.7246h-25.4244l-2.0248-15.0752c-3.7508,5.7021-8.5143,10.2021-14.2871,13.5-5.7757,3.2979-12.3394,4.9502-19.6868,4.9502-14.5507,0-25.7261-5.625-33.5237-16.875-7.801-11.25-11.6998-26.5498-11.6998-45.9004,0-12.1494,1.9477-22.9844,5.8499-32.5117,3.8988-9.5244,9.485-16.9883,16.7621-22.3877,7.2737-5.4004,15.7109-8.1006,25.3116-8.1006,11.397,0,21.3742,4.2754,29.9237,12.8252V3.0174l28.7993,3.1504ZM1252.904,150.7303c3.8988-2.4756,7.5725-6.3359,11.0245-11.5879v-54.4502c-3.452-4.1973-6.9397-7.3477-10.462-9.4502-3.5262-2.0986-7.6145-3.1494-12.2623-3.1494-7.6496,0-13.689,3.4131-18.1116,10.2373-4.4261,6.8271-6.6375,17.1387-6.6375,30.9375,0,14.7021,1.9477,25.2383,5.8499,31.6123,3.8988,6.3779,9.5973,9.5625,17.0995,9.5625,5.0975,0,9.5973-1.2373,13.4995-3.7119Z"
      />
      <path
        d="M829.6986,269.4178v131.1748h62.3229l-3.3749,24.2998h-88.6467v-155.4746h29.6986Z"
      />
      <path
        d="M1001.479,403.6297c1.4238,2.1768,3.7123,3.8643,6.8621,5.0625l-6.0745,19.125c-6.7498-.6006-12.2623-2.25-16.537-4.9502-4.2747-2.6992-7.5373-6.8232-9.7872-12.375-4.0497,6.002-9.112,10.4629-15.187,13.3877-6.0745,2.9248-12.8633,4.3877-20.3616,4.3877-11.8506,0-21.2268-3.375-28.124-10.125-6.9011-6.75-10.3497-15.5986-10.3497-26.5498,0-12.8994,4.6864-22.7607,14.062-29.5879,9.3722-6.8232,22.7594-10.2373,40.1611-10.2373h14.8496v-6.75c0-7.6504-1.7651-13.0117-5.2874-16.0879-3.5262-3.0723-9.1896-4.6123-16.9872-4.6123-8.7009,0-19.2015,2.1025-31.4989,6.2998l-6.7498-19.5742c14.8496-5.6992,29.2489-8.5508,43.1986-8.5508,30.4476,0,45.6732,13.6514,45.6732,40.9502v49.9502c0,4.6514.7104,8.0645,2.1376,10.2373ZM939.9437,256.5174c2.9989,3.002,4.4998,6.6758,4.4998,11.0254s-1.5009,8.0254-4.4998,11.0244c-3.0023,3.0029-6.676,4.5-11.0245,4.5-4.4998,0-8.2897-1.4971-11.3619-4.5-3.0761-2.999-4.6126-6.6729-4.6126-11.0244s1.5366-8.0234,4.6126-11.0254c3.0722-2.999,6.8621-4.5,11.3619-4.5,4.3485,0,8.0222,1.501,11.0245,4.5ZM970.9928,392.7176v-24.0752h-11.9249c-18.6004,0-27.8989,6.9014-27.8989,20.7002,0,5.7021,1.4238,10.125,4.2747,13.2744,2.8476,3.1504,7.0486,4.7256,12.5996,4.7256,9.7487,0,17.3983-4.873,22.9494-14.625ZM989.8921,256.5174c2.9984,3.002,4.4998,6.6758,4.4998,11.0254s-1.5014,8.0254-4.4998,11.0244c-3.0023,3.0029-6.7498,4.5-11.2496,4.5-4.3524,0-8.0646-1.4971-11.1373-4.5-3.0761-2.999-4.6121-6.6729-4.6121-11.0244s1.5361-8.0234,4.6121-11.0254c3.0726-2.999,6.7849-4.5,11.1373-4.5,4.4998,0,8.2473,1.501,11.2496,4.5Z"
      />
      <path
        d="M1121.3975,312.0545c5.9236,6.3779,8.8869,15.2656,8.8869,26.6631v86.1748h-28.7988v-81.6748c0-7.0488-1.2377-11.999-3.7123-14.8506-2.475-2.8477-6.1135-4.2744-10.9122-4.2744-4.95,0-9.4147,1.54-13.3872,4.6123-3.9759,3.0762-7.8396,7.5371-11.587,13.3877v82.7998h-28.7988v-119.0254h24.9737l2.2499,15.5254c9.7487-12.5996,21.8244-18.9004,36.2238-18.9004,10.6485,0,18.9344,3.1895,24.8619,9.5625Z"
      />
      <path
        d="M1262.8036,258.1678v166.7246h-25.4244l-2.0248-15.0752c-3.7508,5.7021-8.5143,10.2021-14.2871,13.5-5.7757,3.2979-12.3394,4.9502-19.6868,4.9502-14.5507,0-25.7261-5.625-33.5237-16.875-7.801-11.25-11.6998-26.5498-11.6998-45.9004,0-12.1494,1.9477-22.9844,5.8499-32.5117,3.8988-9.5244,9.485-16.9883,16.7621-22.3877,7.2737-5.4004,15.7109-8.1006,25.3116-8.1006,11.397,0,21.3742,4.2754,29.9237,12.8252v-60.2998l28.7993,3.1504ZM1222.9798,402.7303c3.8988-2.4756,7.5725-6.3359,11.0245-11.5879v-54.4502c-3.452-4.1973-6.9397-7.3477-10.462-9.4502-3.5262-2.0986-7.6145-3.1494-12.2623-3.1494-7.6496,0-13.689,3.4131-18.1116,10.2373-4.4261,6.8271-6.6375,17.1387-6.6375,30.9375,0,14.7021,1.9477,25.2383,5.8499,31.6123,3.8988,6.3779,9.5973,9.5625,17.0995,9.5625,5.0975,0,9.5973-1.2373,13.4995-3.7119Z"
      />
      <path
        d="M1393.2984,374.2674h-74.697c.8999,11.5527,3.8988,19.7998,8.9997,24.75,5.0975,4.9502,11.8472,7.4248,20.2493,7.4248,5.2483,0,10.1984-.8613,14.8496-2.5869,4.6473-1.7227,9.5973-4.3877,14.8491-7.9883l11.9249,16.4258c-13.2007,10.6523-27.8989,15.9746-44.0985,15.9746-18.1507,0-32.1385-5.5479-41.9609-16.6504-9.8258-11.0986-14.7373-26.2471-14.7373-45.4492,0-12.1504,2.099-23.0625,6.3001-32.7383,4.1976-9.6748,10.2721-17.2471,18.2244-22.7246,7.9484-5.4736,17.3978-8.2129,28.3486-8.2129,16.6498,0,29.5478,5.2881,38.6988,15.8633,9.1471,10.5742,13.7246,25.3125,13.7246,44.2119,0,1.501-.2251,5.4004-.6753,11.7002ZM1365.3995,354.242c0-20.8477-7.7268-31.2744-23.174-31.2744-7.052,0-12.5645,2.5869-16.537,7.7627-3.9759,5.1748-6.3386,13.4648-7.0871,24.8623h46.7981v-1.3506Z"
      />
      <path
        d="M1489.3691,304.2928l-4.95,27.8994c-3.6-.8994-7.1257-1.3496-10.5743-1.3496-7.0525,0-12.5996,2.5137-16.6498,7.5371-4.0497,5.0273-7.2771,12.7129-9.6745,23.0625v63.4502h-28.7988v-119.0254h24.9737l2.7001,23.4004c2.8476-8.5498,6.9748-15.1104,12.3746-19.6875,5.3997-4.5742,11.6221-6.8623,18.6741-6.8623,4.349,0,8.3249.5273,11.9249,1.5752Z"
      />
      <path
        d="M829.6986,521.4178v155.4746h-29.6986v-155.4746h29.6986ZM916.9958,521.4178l-53.773,70.4248,58.0477,85.0498h-35.3239l-54.8979-83.0254,53.773-72.4492h32.1741Z"
      />
      <path
        d="M1021.7268,571.2547c9.8224,11.1768,14.7373,26.5146,14.7373,46.0127,0,12.4521-2.2499,23.4385-6.7498,32.9629-4.4998,9.5273-10.9508,16.9131-19.3494,22.1621-8.402,5.249-18.3753,7.875-29.9237,7.875-17.5497,0-31.2743-5.5859-41.1738-16.7627-9.8995-11.1729-14.8496-26.585-14.8496-46.2373,0-12.4492,2.2499-23.4004,6.7498-32.8496,4.4998-9.4502,10.9859-16.7979,19.4622-22.0508,8.4723-5.248,18.4842-7.875,30.036-7.875,17.5497,0,31.2352,5.5898,41.061,16.7627ZM954.7918,617.2674c0,14.1016,2.1376,24.4902,6.4124,31.1621,4.2747,6.6768,10.6871,10.0127,19.2371,10.0127s14.9619-3.375,19.2366-10.125,6.4124-17.0996,6.4124-31.0498-2.1376-24.2617-6.4124-30.9375c-4.2747-6.6729-10.6134-10.0127-19.012-10.0127-17.2504,0-25.8741,13.6514-25.8741,40.9502Z"
      />
      <path
        d="M1211.5076,564.2801c5.6985,6.5244,8.5495,15.3389,8.5495,26.4375v86.1748h-28.7988v-81.6748c0-12.748-4.3524-19.125-13.0493-19.125-4.6512,0-8.6623,1.4619-12.0372,4.3877-3.3749,2.9248-6.8625,7.4629-10.462,13.6123v82.7998h-28.7993v-81.6748c0-12.748-4.3519-19.125-13.0493-19.125-4.8021,0-8.8874,1.4619-12.2623,4.3877-3.3749,2.9248-6.8621,7.4629-10.462,13.6123v82.7998h-28.7988v-119.0254h24.9737l2.2499,15.5254c8.9997-12.5996,20.4744-18.9004,34.424-18.9004,6.8972,0,12.8594,1.7656,17.8866,5.2881,5.0237,3.5264,8.6623,8.4375,10.9122,14.7373,4.7987-6.4473,10.0861-11.3975,15.8622-14.8496,5.7723-3.4492,12.4097-5.1758,19.9114-5.1758,9.5973,0,17.2474,3.2627,22.9494,9.7881Z"
      />
      <path
        d="M1401.6237,564.2801c5.6985,6.5244,8.5495,15.3389,8.5495,26.4375v86.1748h-28.7988v-81.6748c0-12.748-4.3524-19.125-13.0493-19.125-4.6512,0-8.6623,1.4619-12.0372,4.3877-3.3749,2.9248-6.8625,7.4629-10.462,13.6123v82.7998h-28.7993v-81.6748c0-12.748-4.3519-19.125-13.0493-19.125-4.8021,0-8.8874,1.4619-12.2623,4.3877-3.3749,2.9248-6.8621,7.4629-10.462,13.6123v82.7998h-28.7988v-119.0254h24.9737l2.2499,15.5254c8.9997-12.5996,20.4744-18.9004,34.424-18.9004,6.8972,0,12.8594,1.7656,17.8866,5.2881,5.0237,3.5264,8.6623,8.4375,10.9122,14.7373,4.7987-6.4473,10.0861-11.3975,15.8622-14.8496,5.7723-3.4492,12.4097-5.1758,19.9114-5.1758,9.5973,0,17.2474,3.2627,22.9494,9.7881Z"
      />
      <path
        d="M1537.7419,676.8924h-24.9742l-1.5747-16.6504c-4.3524,6.75-9.4884,11.7773-15.412,15.0752-5.927,3.2979-12.937,4.9502-21.0368,4.9502-10.652,0-18.8641-3.2627-24.6368-9.7871-5.7757-6.5254-8.6618-15.5605-8.6618-27.1133v-85.5h28.7988v81.9004c0,6.75,1.1601,11.5527,3.4872,14.4004,2.3241,2.8506,6.0364,4.2744,11.1373,4.2744,9.1471,0,17.1732-5.625,24.0743-16.875v-83.7002h28.7988v119.0254Z"
      />
      <path
        d="M1659.5739,564.0545c5.9236,6.3779,8.8874,15.2656,8.8874,26.6631v86.1748h-28.7988v-81.6748c0-7.0488-1.2382-11.999-3.7128-14.8506-2.4745-2.8477-6.1131-4.2744-10.9117-4.2744-4.95,0-9.4147,1.54-13.3872,4.6123-3.9764,3.0762-7.8396,7.5371-11.5875,13.3877v82.7998h-28.7988v-119.0254h24.9737l2.2499,15.5254c9.7487-12.5996,21.8244-18.9004,36.2243-18.9004,10.6481,0,18.9339,3.1895,24.8614,9.5625Z"
      />
      <path
        d="M1797.3804,626.2674h-74.6975c.9004,11.5527,3.8993,19.7998,8.9997,24.75,5.0975,4.9502,11.8472,7.4248,20.2493,7.4248,5.2488,0,10.1988-.8613,14.85-2.5869,4.6473-1.7227,9.5973-4.3877,14.8491-7.9883l11.9244,16.4258c-13.2007,10.6523-27.8984,15.9746-44.098,15.9746-18.1507,0-32.1385-5.5479-41.9614-16.6504-9.8258-11.0986-14.7368-26.2471-14.7368-45.4492,0-12.1504,2.0986-23.0625,6.2996-32.7383,4.1981-9.6748,10.2721-17.2471,18.2249-22.7246,7.948-5.4736,17.3978-8.2129,28.3486-8.2129,16.6498,0,29.5478,5.2881,38.6988,15.8633,9.1471,10.5742,13.7241,25.3125,13.7241,44.2119,0,1.501-.2246,5.4004-.6748,11.7002ZM1769.481,606.242c0-20.8477-7.7263-31.2744-23.174-31.2744-7.0515,0-12.564,2.5869-16.5365,7.7627-3.9764,5.1748-6.3386,13.4648-7.0876,24.8623h46.7981v-1.3506Z"
      />
      <path
        d="M1911.1126,564.0545c5.9236,6.3779,8.8874,15.2656,8.8874,26.6631v86.1748h-28.7988v-81.6748c0-7.0488-1.2382-11.999-3.7128-14.8506-2.4745-2.8477-6.1131-4.2744-10.9117-4.2744-4.95,0-9.4147,1.54-13.3872,4.6123-3.9764,3.0762-7.8396,7.5371-11.5875,13.3877v82.7998h-28.7988v-119.0254h24.9737l2.2499,15.5254c9.7487-12.5996,21.8244-18.9004,36.2243-18.9004,10.6481,0,18.9339,3.1895,24.8614,9.5625Z"
      />
    </g>
  </svg>
