<?xml version="1.0" encoding="UTF-8"?>
  <svg xmlns="http://www.w3.org/2000/svg" viewBox="0 0 770 770">
    <style>
      .dd-gold {
        fill: #f0b405;
      }
      .dd-red {
        fill: #dc0000;
      }

      @media (prefers-color-scheme: dark) {
        .dd-gold {
          fill: #f2bc4f;;
        }
        .dd-red {
          fill: #ff6b6b;
        }
        .dd-type {
          fill: white;
        }
      }
    </style>
    <path
      d="M28.37,212.2557v332.8607c0,15.68-12.69,28.3801-28.37,28.3801V191.5656c9.21,7.23,18.67,14.14,28.37,20.6901ZM71.04,237.9557v292.9406c15.68,0,28.38-12.7,28.38-28.3801v-250.5505c-9.63-4.36-19.1-9.04-28.38-14.01ZM142.09,268.8458v219.3605c15.66,0,28.37-12.7,28.37-28.3801v-182.2504c-7.37-1.94-20.92-6.03-28.37-8.73ZM243.03,446.7362c-3.84-32.8001-10.49-86.5302-4.53-155.7103-7.8-.87-18.53-2.76-26.61-4.23-6.1,71.6201-.15,126.6402,4.43,166.2503,0,0,12.39-3.93,26.71-6.31ZM571.62,212.2557v332.8607c0,15.68,12.7,28.3801,28.38,28.3801V191.5656c-9.21,7.23-18.67,14.14-28.38,20.6901ZM500.58,251.9658v250.5505c0,15.68,12.7,28.3801,28.38,28.3801V237.9558c-9.29,4.97-18.75,9.65-28.38,14.01ZM429.53,277.5758v182.2504c0,15.68,12.72,28.3801,28.38,28.3801v-219.3605c-7.46,2.7-21,6.79-28.38,8.73ZM383.68,453.0462c4.58-39.6101,10.53-94.6302,4.43-166.2503-8.08,1.47-18.81,3.36-26.61,4.23,5.96,69.1801-.7,122.9103-4.54,155.7103,14.33,2.38,26.72,6.31,26.72,6.31Z"
      class="dd-red"
    />
    <path
      d="M162.24,686.4298c-15.08-.29-27.3-12.62-27.34-27.7301v-29.3201l-47.87,43.9801c-10.02-11.22-9.35-28.5501,1.6-38.8701l22.92-21.38h-50.27c.14-7.24,3.03-14.01,8.15-19.13,5.25-5.24,12.24-8.15,19.67-8.15h52.61l68.54-66.6801c9.71-9.46,10.76-12.55,10.83-22.16,10.06-4.45,16.89-6.16,25.5-7.8v7.39c0,17.44-.59,25.08-15.4,39.4901-15.22,14.8-60.22,58.6001-60.22,58.6001l25.56,10.23c7.09,2.32,12.82,7.25,16.19,13.88,3.26,6.45,3.89,13.77,1.79,20.6701l-52.26-20.08v67.0602h0ZM300,770c37.33,0,77.53-7.46,107.54-19.9401l19.63-8.16s-6.34-6.42-15.09-15c-49.66-48.6901-63.66-97.5002-51.75-162.1403-13.4-12.91-16.45-16.18-21.85-24.67-10.89,48.6201-22.28,123.3103,38.33,190.7204-22.91,6.72-50.82,11.81-76.81,11.81s-53.9-5.09-76.81-11.81c60.61-67.4101,49.22-142.1003,38.33-190.7204-5.4,8.49-8.45,11.76-21.85,24.67,11.91,64.6401-2.09,113.4502-51.76,162.1403-8.74,8.58-15.08,15-15.08,15l19.63,8.16c30.01,12.48,70.21,19.9401,107.54,19.9401ZM437.75,686.4298c15.09-.29,27.31-12.62,27.35-27.7301v-29.3201l47.87,43.9901c10.01-11.23,9.35-28.5601-1.6-38.8801l-22.93-21.38h50.27c-.13-7.24-3.02-14.01-8.14-19.13-5.26-5.24-12.24-8.15-19.68-8.15h-52.6l-68.54-66.6801c-9.71-9.46-10.76-12.55-10.84-22.16-10.05-4.45-16.89-6.16-25.5-7.8v7.39c0,17.44.6,25.08,15.41,39.4901,15.21,14.8,60.22,58.6001,60.22,58.6001l-25.56,10.23c-7.09,2.32-12.82,7.25-16.19,13.88-3.26,6.45-3.9,13.77-1.79,20.6801l52.25-20.09v67.0601Z"
      class="dd-gold"
    />
    <path
      class="dd-type"
      d="M366.47,129.5487c6.2,28.4001,12.03,58.0701,15.17,94.9902-8.75,2.18-18.39,3.4-28.15,3.98-2.67-35.1001-8.65-65.0301-14.73-92.9202-2.47-11.27-4.8-21.93-6.73-31.6401-5.04-25.1901-.05-42.1401,15.34-54.2001l-49.38-18.59c-11.55-4.57-21.05-1.65-29.55,7.55l-2.04,2.12-6.69-2.08c-2.99-.92-8.68-2.74-17.1-2.74-7.72,0-14.22,7.49-14.22,17.01v21.89c12.91,0,23.73,1.47,31.62,5.68,9.05,4.84,16.18,13.22,16.18,28.5701,0,28.5801-21.68,81.0602-29.23,119.5003-10.21-.67-18.08-1.71-28.33-3.91,7.08-38.1901,28.32-86.0802,28.32-108.9402,0-13.25-11.97-13.25-26.47-13.25h-20.46v-51.0401c0-12.35,3.25-25.1101,12.56-33.2101,7.99-6.95,16.55-9.54,26.7-9.54,8.6,0,13.73,1.7,19.17,2.7,17.7-13.95,31.87-14,50.54-6.47l96.22,40.4601-4.51,1.79s-48.34,18.01-40.85,51.1501c2.12,9.41,4.18,19.98,6.62,31.1401ZM85.66,17.4184C38.36,17.4184,0,55.7585,0,103.0686v46.1101c9.2,7.24,18.66,14.14,28.37,20.69v-66.8001c0-31.6401,25.65-57.2801,57.29-57.2801h42.24c7.82,0,14.92-3.17,20.06-8.31,5.14-5.12,8.31-12.23,8.31-20.06h-70.61ZM194.2,192.7988c-80.93-23.4601-94.78-38.4501-94.78-72.7702v-33.0001c-15.68,0-28.38,12.7-28.38,28.3801v8.8c0,47.4701,17.62,69.2301,116.01,94.5802,2.1-9.68,3.69-15.76,7.15-25.99ZM443.73,17.418c0,7.83,3.17,14.9405,8.31,20.0605,5.14,5.14,12.24,8.31,20.06,8.31h42.24c31.64,0,57.28,25.6401,57.28,57.2801v66.8001c9.71-6.55,19.17-13.45,28.38-20.69v-46.1101c0-47.3101-38.36-85.6502-85.66-85.6502l-70.61-.0004ZM412.72,218.7888c98.4-25.3501,116.24-47.1101,116.24-94.5802v-8.8c0-15.68-12.71-28.3801-28.38-28.3801v33.0001c0,33.7601-13.46,48.8201-90.92,71.6301,1.31,8.88,2.34,18.16,3.06,27.1301Z"
    />
  </svg>
