<svg viewBox="0 0 1680 777" xmlns="http://www.w3.org/2000/svg">
  <style>
      .dd-gold {
        fill: #f0b405;
      }
      .dd-red {
        fill: #dc0000;
      }

      @media (prefers-color-scheme: dark) {
        .dd-gold {
          fill: #f2bc4f;;
        }
        .dd-red {
          fill: #ff6b6b;
        }
        .dd-type {
          fill: white;
        }
      }
  </style>
  <path
     d="m 162.24,686.4298 c -15.08,-0.29 -27.3,-12.62 -27.34,-27.7301 v -29.3201 l -47.87,43.9801 c -10.02,-11.22 -9.35,-28.5501 1.6,-38.8701 l 22.92,-21.38 H 61.28 c 0.14,-7.24 3.03,-14.01 8.15,-19.13 5.25,-5.24 12.24,-8.15 19.67,-8.15 h 52.61 l 68.54,-66.6801 c 9.71,-9.46 10.76,-12.55 10.83,-22.16 10.06,-4.45 16.89,-6.16 25.5,-7.8 v 7.39 c 0,17.44 -0.59,25.08 -15.4,39.4901 -15.22,14.8 -60.22,58.6001 -60.22,58.6001 l 25.56,10.23 c 7.09,2.32 12.82,7.25 16.19,13.88 3.26,6.45 3.89,13.77 1.79,20.6701 l -52.26,-20.08 v 67.0602 0 z M 300,770 c 37.33,0 77.53,-7.46 107.54,-19.9401 l 19.63,-8.16 c 0,0 -6.34,-6.42 -15.09,-15 -49.66,-48.6901 -63.66,-97.5002 -51.75,-162.1403 -13.4,-12.91 -16.45,-16.18 -21.85,-24.67 -10.89,48.6201 -22.28,123.3103 38.33,190.7204 -22.91,6.72 -50.82,11.81 -76.81,11.81 -25.99,0 -53.9,-5.09 -76.81,-11.81 60.61,-67.4101 49.22,-142.1003 38.33,-190.7204 -5.4,8.49 -8.45,11.76 -21.85,24.67 11.91,64.6401 -2.09,113.4502 -51.76,162.1403 -8.74,8.58 -15.08,15 -15.08,15 l 19.63,8.16 C 222.47,762.5399 262.67,770 300,770 Z m 137.75,-83.5702 c 15.09,-0.29 27.31,-12.62 27.35,-27.7301 v -29.3201 l 47.87,43.9901 c 10.01,-11.23 9.35,-28.5601 -1.6,-38.8801 l -22.93,-21.38 h 50.27 c -0.13,-7.24 -3.02,-14.01 -8.14,-19.13 -5.26,-5.24 -12.24,-8.15 -19.68,-8.15 h -52.6 l -68.54,-66.6801 c -9.71,-9.46 -10.76,-12.55 -10.84,-22.16 -10.05,-4.45 -16.89,-6.16 -25.5,-7.8 v 7.39 c 0,17.44 0.6,25.08 15.41,39.4901 15.21,14.8 60.22,58.6001 60.22,58.6001 l -25.56,10.23 c -7.09,2.32 -12.82,7.25 -16.19,13.88 -3.26,6.45 -3.9,13.77 -1.79,20.6801 l 52.25,-20.09 v 67.0601 z"
     class="dd-gold" />
  <path
     d="m 28.37,212.2557 v 332.8607 c 0,15.68 -12.69,28.3801 -28.37,28.3801 V 191.5656 c 9.21,7.23 18.67,14.14 28.37,20.6901 z m 42.67,25.7 v 292.9406 c 15.68,0 28.38,-12.7 28.38,-28.3801 V 251.9657 c -9.63,-4.36 -19.1,-9.04 -28.38,-14.01 z m 71.05,30.8901 v 219.3605 c 15.66,0 28.37,-12.7 28.37,-28.3801 V 277.5758 c -7.37,-1.94 -20.92,-6.03 -28.37,-8.73 z m 100.94,177.8904 c -3.84,-32.8001 -10.49,-86.5302 -4.53,-155.7103 -7.8,-0.87 -18.53,-2.76 -26.61,-4.23 -6.1,71.6201 -0.15,126.6402 4.43,166.2503 0,0 12.39,-3.93 26.71,-6.31 z M 571.62,212.2557 v 332.8607 c 0,15.68 12.7,28.3801 28.38,28.3801 V 191.5656 c -9.21,7.23 -18.67,14.14 -28.38,20.6901 z m -71.04,39.7101 v 250.5505 c 0,15.68 12.7,28.3801 28.38,28.3801 V 237.9558 c -9.29,4.97 -18.75,9.65 -28.38,14.01 z m -71.05,25.61 v 182.2504 c 0,15.68 12.72,28.3801 28.38,28.3801 V 268.8458 c -7.46,2.7 -21,6.79 -28.38,8.73 z m -45.85,175.4704 c 4.58,-39.6101 10.53,-94.6302 4.43,-166.2503 -8.08,1.47 -18.81,3.36 -26.61,4.23 5.96,69.1801 -0.7,122.9103 -4.54,155.7103 14.33,2.38 26.72,6.31 26.72,6.31 z"
     class="dd-red" />
  <path
     d="m 366.47,129.5487 c 6.2,28.4001 12.03,58.0701 15.17,94.9902 -8.75,2.18 -18.39,3.4 -28.15,3.98 -2.67,-35.1001 -8.65,-65.0301 -14.73,-92.9202 -2.47,-11.27 -4.8,-21.93 -6.73,-31.6401 -5.04,-25.1901 -0.05,-42.1401 15.34,-54.2001 l -49.38,-18.59 c -11.55,-4.57 -21.05,-1.65 -29.55,7.55 l -2.04,2.12 -6.69,-2.08 c -2.99,-0.92 -8.68,-2.74 -17.1,-2.74 -7.72,0 -14.22,7.49 -14.22,17.01 v 21.89 c 12.91,0 23.73,1.47 31.62,5.68 9.05,4.84 16.18,13.22 16.18,28.5701 0,28.5801 -21.68,81.0602 -29.23,119.5003 -10.21,-0.67 -18.08,-1.71 -28.33,-3.91 7.08,-38.1901 28.32,-86.0802 28.32,-108.9402 0,-13.25 -11.97,-13.25 -26.47,-13.25 H 200.02 V 51.5286 c 0,-12.35 3.25,-25.1101 12.56,-33.2101 7.99,-6.95 16.55,-9.54 26.7,-9.54 8.6,0 13.73,1.7 19.17,2.7 17.7,-13.95 31.87,-14 50.54,-6.47 l 96.22,40.4601 -4.51,1.79 c 0,0 -48.34,18.01 -40.85,51.1501 2.12,9.41 4.18,19.98 6.62,31.1401 z M 85.66,17.4184 C 38.36,17.4184 0,55.7585 0,103.0686 v 46.1101 c 9.2,7.24 18.66,14.14 28.37,20.69 v -66.8001 c 0,-31.6401 25.65,-57.2801 57.29,-57.2801 h 42.24 c 7.82,0 14.92,-3.17 20.06,-8.31 5.14,-5.12 8.31,-12.23 8.31,-20.06 H 85.66 Z M 194.2,192.7988 C 113.27,169.3387 99.42,154.3487 99.42,120.0286 V 87.0285 c -15.68,0 -28.38,12.7 -28.38,28.3801 v 8.8 c 0,47.4701 17.62,69.2301 116.01,94.5802 2.1,-9.68 3.69,-15.76 7.15,-25.99 z M 443.73,17.418 c 0,7.83 3.17,14.9405 8.31,20.0605 5.14,5.14 12.24,8.31 20.06,8.31 h 42.24 c 31.64,0 57.28,25.6401 57.28,57.2801 v 66.8001 c 9.71,-6.55 19.17,-13.45 28.38,-20.69 V 103.0686 C 600,55.7585 561.64,17.4184 514.34,17.4184 Z m -31.01,201.3708 c 98.4,-25.3501 116.24,-47.1101 116.24,-94.5802 v -8.8 c 0,-15.68 -12.71,-28.3801 -28.38,-28.3801 v 33.0001 c 0,33.7601 -13.46,48.8201 -90.92,71.6301 1.31,8.88 2.34,18.16 3.06,27.1301 z"
     class="dd-type" />
  <path
     d="m 819.23155,161.64447 q 15.232,0 26.88,4.704 11.872,4.48 22.4,13.44 l -15.904,16.576 q -8.288,-6.496 -15.68,-9.408 -7.168,-2.912 -16.8,-2.912 -17.92,0 -29.344,14.336 -11.424,14.336 -11.424,43.904 0,30.912 8.96,44.576 9.184,13.664 27.776,13.664 14.112,0 24.64,-6.048 v -40.32 h -23.296 l -3.136,-21.952 h 55.552 v 75.712 q -25.088,15.232 -53.312,15.232 -33.152,0 -50.848,-20.608 -17.472,-20.608 -17.472,-60.256 0,-25.312 9.408,-43.456 9.632,-18.368 25.76,-27.776 16.128,-9.408 35.84,-9.408 z m 137.53611,36.512 q 6.496,0 11.872,1.568 l -4.928,27.776 q -5.376,-1.344 -10.528,-1.344 -10.528,0 -16.576,7.616 -6.048,7.392 -9.632,22.848 v 63.168 h -28.672 v -118.496 h 24.864 l 2.688,23.296 q 4.256,-12.768 12.32,-19.488 8.064,-6.944 18.592,-6.944 z m 123.64804,121.632 h -24.864 l -1.568,-16.576 q -6.72,10.08 -15.456,15.008 -8.736,4.928 -20.832,4.928 -15.904,0 -24.41599,-9.632 -8.512,-9.856 -8.512,-27.104 v -85.12 h 28.67199 v 81.536 q 0,10.304 3.36,14.56 3.36,4.032 10.976,4.032 14.112,0 23.968,-16.8 v -83.328 h 28.672 z m -72.352,-175.84 q 6.496,0 10.976,4.48 4.48,4.48 4.48,10.976 0,6.496 -4.48,10.976 -4.48,4.48 -10.976,4.48 -6.72,0 -11.42399,-4.48 -4.48,-4.48 -4.48,-10.976 0,-6.496 4.48,-10.976 4.70399,-4.48 11.42399,-4.48 z m 49.504,0 q 6.72,0 11.2,4.48 4.48,4.48 4.48,10.976 0,6.496 -4.48,10.976 -4.48,4.48 -11.2,4.48 -6.496,0 -11.2,-4.48 -4.48,-4.48 -4.48,-10.976 0,-6.496 4.48,-10.976 4.704,-4.48 11.2,-4.48 z m 119.6158,53.984 q 15.904,0 24.64,9.632 8.96,9.408 8.96,26.432 v 85.792 h -28.672 v -81.312 q 0,-10.528 -3.808,-14.784 -3.584,-4.256 -10.752,-4.256 -7.392,0 -13.44,4.704 -5.824,4.48 -11.424,13.216 v 82.432 h -28.672 v -118.496 h 24.864 l 2.24,15.456 q 14.56,-18.816 36.064,-18.816 z m 164.8641,-44.128 v 165.984 h -25.312 l -2.016,-15.008 q -5.6,8.512 -14.336,13.44 -8.512,4.928 -19.488,4.928 -21.728,0 -33.376,-16.8 -11.648,-16.8 -11.648,-45.696 0,-18.144 5.824,-32.256 5.824,-14.336 16.576,-22.4 10.976,-8.064 25.312,-8.064 17.024,0 29.792,12.768 v -60.032 z m -53.088,147.616 q 7.616,0 13.44,-3.584 5.824,-3.808 10.976,-11.648 v -54.208 q -5.152,-6.272 -10.528,-9.408 -5.152,-3.136 -12.096,-3.136 -11.424,0 -18.144,10.304 -6.496,10.08 -6.496,30.688 0,21.952 5.824,31.584 5.824,9.408 17.024,9.408 z m 184.3522,-43.68 q 0,2.24 -0.672,11.648 h -74.368 q 1.344,17.248 8.96,24.64 7.616,7.392 20.16,7.392 7.84,0 14.784,-2.464 6.944,-2.688 14.784,-8.064 l 11.872,16.352 q -19.712,15.904 -43.904,15.904 -27.104,0 -41.888,-16.576 -14.56,-16.576 -14.56,-45.248 0,-18.144 6.272,-32.48 6.272,-14.56 18.144,-22.624 11.872,-8.288 28.224,-8.288 24.864,0 38.528,15.904 13.664,15.68 13.664,43.904 z m -28.448,-8.288 q 0,-31.136 -23.072,-31.136 -10.528,0 -16.576,7.84 -5.824,7.616 -6.944,24.64 h 46.592 z m 116.9279,-51.52 q 15.904,0 24.64,9.632 8.96,9.408 8.96,26.432 v 85.792 h -28.672 v -81.312 q 0,-10.528 -3.808,-14.784 -3.584,-4.256 -10.752,-4.256 -7.392,0 -13.44,4.704 -5.824,4.48 -11.424,13.216 v 82.432 h -28.672 v -118.496 h 24.864 l 2.24,15.456 q 14.56,-18.816 36.064,-18.816 z"
     class="dd-type"
     aria-label="Gründen" />
  <path
     d="m 854.39974,412.23553 v 165.984 h -25.312 l -2.016,-15.008 q -5.6,8.512 -14.336,13.44 -8.512,4.928 -19.488,4.928 -21.728,0 -33.376,-16.8 -11.648,-16.8 -11.648,-45.696 0,-18.144 5.824,-32.256 5.824,-14.336 16.576,-22.4 10.976,-8.064 25.312,-8.064 17.024,0 29.792,12.768 v -60.032 z m -53.088,147.616 q 7.616,0 13.44,-3.584 5.824,-3.808 10.976,-11.648 v -54.208 q -5.152,-6.272 -10.528,-9.408 -5.152,-3.136 -12.096,-3.136 -11.424,0 -18.144,10.304 -6.496,10.08 -6.496,30.688 0,21.952 5.824,31.584 5.824,9.408 17.024,9.408 z m 100.80021,-160.16 q 8.064,0 12.992,5.152 5.152,4.928 5.152,12.32 0,7.392 -5.152,12.32 -4.928,4.928 -12.992,4.928 -7.84,0 -12.992,-4.928 -4.928,-4.928 -4.928,-12.32 0,-7.392 4.928,-12.32 5.152,-5.152 12.992,-5.152 z m 14.56,178.528 h -28.672 v -118.496 h 28.672 z m 137.08795,-112.224 q -11.424,4.032 -34.272,4.032 10.976,4.928 16.128,12.32 5.376,7.168 5.376,18.144 0,11.648 -5.824,20.608 -5.6,8.96 -16.576,14.112 -10.752,5.152 -25.31198,5.152 -8.064,0 -14.112,-1.792 -4.928,3.36 -4.928,8.736 0,8.288 14.336,8.288 h 18.14398 q 12.992,0 22.624,4.256 9.856,4.256 15.232,12.096 5.376,7.616 5.376,17.248 0,17.92 -15.232,27.776 -15.232,10.08 -43.90398,10.08 -20.608,0 -32.48,-4.256 -11.648,-4.256 -16.576,-12.32 -4.928,-8.064 -4.928,-20.608 h 25.76 q 0,6.272 2.24,9.856 2.464,3.584 8.512,5.376 6.272,1.792 17.92,1.792 16.35198,0 23.07198,-4.032 6.72,-4.032 6.72,-11.648 0,-6.72 -5.152,-10.528 -5.152,-3.584 -15.008,-3.584 h -17.91998 q -16.8,0 -25.312,-6.496 -8.512,-6.496 -8.512,-16.352 0,-6.272 3.584,-12.096 3.808,-5.824 10.304,-9.856 -10.752,-5.6 -15.904,-13.664 -4.928,-8.288 -4.928,-19.712 0,-12.768 6.272,-22.4 6.272,-9.632 17.248,-14.784 11.2,-5.376 25.536,-5.376 18.81598,0.448 30.23998,-2.688 11.648,-3.36 25.088,-10.528 z m -62.04798,9.856 q -9.632,0 -15.232,6.272 -5.376,6.048 -5.376,16.352 0,10.752 5.6,17.024 5.6,6.272 15.456,6.272 10.30398,0 15.67998,-6.048 5.376,-6.272 5.376,-17.472 0,-22.4 -21.50398,-22.4 z m 92.96018,-76.16 q 8.064,0 12.992,5.152 5.152,4.928 5.152,12.32 0,7.392 -5.152,12.32 -4.928,4.928 -12.992,4.928 -7.84,0 -12.992,-4.928 -4.928,-4.928 -4.928,-12.32 0,-7.392 4.928,-12.32 5.152,-5.152 12.992,-5.152 z m 14.56,178.528 h -28.672 v -118.496 h 28.672 z m 101.9199,-5.6 q -6.272,4.48 -14.112,6.72 -7.616,2.24 -15.68,2.24 -17.472,-0.224 -26.656,-9.856 -8.96,-9.856 -8.96,-28.896 v -62.496 h -18.592 v -20.608 h 18.592 v -26.208 l 28.672,-3.36 v 29.568 h 27.552 l -2.912,20.608 h -24.64 v 61.824 q 0,8.736 2.912,12.544 3.136,3.808 9.632,3.808 6.496,0 14.112,-4.256 z m 102.368,-25.76 q 0,6.944 2.016,10.304 2.24,3.136 6.944,4.928 l -6.048,19.04 q -10.304,-0.896 -16.576,-4.928 -6.272,-4.032 -9.632,-12.544 -11.872,17.92 -35.616,17.92 -17.472,0 -27.776,-10.08 -10.304,-10.08 -10.304,-26.432 0,-19.264 13.888,-29.344 13.888,-10.304 39.872,-10.304 h 15.008 v -6.72 q 0,-11.424 -5.376,-15.904 -5.152,-4.704 -16.8,-4.704 -12.768,0 -31.584,6.272 l -6.496,-19.488 q 22.176,-8.512 42.784,-8.512 45.696,0 45.696,40.768 z m -51.072,13.888 q 14.56,0 22.848,-14.56 v -23.968 h -11.872 q -27.776,0 -27.776,20.608 0,8.512 4.256,13.216 4.256,4.704 12.544,4.704 z m 111.3278,20.832 q -13.664,0 -21.28,-7.84 -7.616,-8.064 -7.616,-22.624 v -138.88 l 28.672,-3.136 v 141.12 q 0,4.256 1.568,6.272 1.568,2.016 5.152,2.016 3.584,0 6.496,-1.12 l 6.272,20.16 q -8.96,4.032 -19.264,4.032 z"
     class="dd-type"
     aria-label="digital" />
</svg>
