<svg xmlns="http://www.w3.org/2000/svg" viewBox="0 0 204 74">
  <style>
    .dd-gold {
      fill: #f0b405;
    }
    .dd-red {
      fill: #dc0000;
    }

    @media (prefers-color-scheme: dark) {
      .dd-gold {
        fill: #f2bc4f;;
      }
      .dd-red {
        fill: #ff6b6b;
      }
      .dd-type {
        fill: white;
      }
    }
  </style>
  <path class="dd-gold" d="M15.451 65.374a2.657 2.657 0 0 1-2.603-2.64V59.94l-4.56 4.188a2.664 2.664 0 0 1 .153-3.702l2.183-2.036H5.836c.014-.69.289-1.334.776-1.822a2.64 2.64 0 0 1 1.874-.776h5.01l6.528-6.35c.925-.901 1.025-1.196 1.031-2.11.958-.425 1.609-.587 2.429-.744v.704c0 1.661-.056 2.389-1.467 3.761l-5.735 5.581 2.434.974c.675.221 1.221.69 1.542 1.322.31.615.37 1.312.17 1.969l-4.977-1.913zm13.12 7.96c3.556 0 7.384-.711 10.242-1.9l1.87-.777s-.604-.611-1.437-1.429c-4.73-4.637-6.063-9.285-4.929-15.441-1.276-1.23-1.566-1.541-2.08-2.35-1.038 4.63-2.123 11.744 3.65 18.164-2.182.64-4.84 1.125-7.316 1.125s-5.133-.485-7.315-1.125c5.773-6.42 4.688-13.533 3.65-18.164-.514.809-.804 1.12-2.08 2.35 1.134 6.156-.2 10.804-4.93 15.441-.832.818-1.436 1.429-1.436 1.429l1.87.777c2.858 1.189 6.686 1.9 10.241 1.9m13.12-7.96a2.657 2.657 0 0 0 2.604-2.64V59.94l4.56 4.19c.953-1.07.89-2.72-.153-3.703l-2.184-2.037h4.788a2.63 2.63 0 0 0-.775-1.822 2.64 2.64 0 0 0-1.875-.776h-5.01l-6.527-6.35c-.925-.901-1.025-1.196-1.032-2.11-.958-.425-1.609-.587-2.429-.744v.704c0 1.661.057 2.389 1.468 3.761l5.735 5.581-2.434.974a2.63 2.63 0 0 0-1.542 1.322 2.63 2.63 0 0 0-.17 1.97l4.975-1.914z"/>
  <path class="dd-red"  d="M2.702 20.215v31.7A2.7 2.7 0 0 1 0 54.619V18.244a47 47 0 0 0 2.702 1.97m4.064 2.447v27.9a2.7 2.7 0 0 0 2.703-2.703V23.997a45 45 0 0 1-2.703-1.335m6.766 2.942v20.892a2.7 2.7 0 0 0 2.702-2.703V26.436a40 40 0 0 1-2.702-.832m9.614 16.942c-.366-3.124-1-8.24-.432-14.83-.743-.082-1.764-.262-2.534-.402-.581 6.82-.014 12.06.422 15.833 0 0 1.18-.374 2.544-.6M54.44 20.215v31.7a2.7 2.7 0 0 0 2.703 2.703V18.244a46 46 0 0 1-2.703 1.97m-6.766 3.782v23.862a2.7 2.7 0 0 0 2.703 2.702V22.662q-1.327.712-2.703 1.335m-6.766 2.439v17.357a2.703 2.703 0 0 0 2.703 2.703V25.604c-.711.257-2 .647-2.703.832M36.54 43.147c.436-3.772 1.003-9.012.422-15.833-.77.14-1.792.32-2.534.403.567 6.588-.067 11.705-.433 14.83 1.365.226 2.545.6 2.545.6"/>
  <path class="dd-type" d="M34.902 12.338c.59 2.705 1.146 5.53 1.445 9.047-.834.207-1.752.323-2.681.379-.255-3.343-.824-6.194-1.403-8.85a162 162 0 0 1-.641-3.013c-.48-2.4-.005-4.014 1.46-5.162l-4.702-1.77c-1.1-.436-2.005-.158-2.814.718l-.195.202-.637-.198c-.285-.087-.826-.26-1.628-.26-.736 0-1.355.713-1.355 1.62v2.084c1.23 0 2.26.14 3.012.541.862.461 1.54 1.26 1.54 2.721 0 2.722-2.064 7.72-2.783 11.381a17 17 0 0 1-2.698-.372c.674-3.638 2.697-8.198 2.697-10.376 0-1.262-1.14-1.262-2.52-1.262h-1.95v-4.86c0-1.177.31-2.392 1.197-3.163.76-.662 1.576-.909 2.543-.909.819 0 1.307.162 1.825.257C26.3-.235 27.65-.24 29.428.477L38.59 4.33l-.43.17s-4.603 1.716-3.89 4.872c.202.896.398 1.903.63 2.966M8.158 1.658A8.16 8.16 0 0 0 0 9.817v4.391a46 46 0 0 0 2.702 1.971V9.816a5.455 5.455 0 0 1 5.456-5.455h4.023c.745 0 1.42-.302 1.91-.792a2.7 2.7 0 0 0 .792-1.91zm10.337 16.704c-7.707-2.234-9.026-3.662-9.026-6.93V8.287a2.7 2.7 0 0 0-2.703 2.703v.838c0 4.521 1.678 6.594 11.048 9.008.2-.922.352-1.5.681-2.475M42.26 1.659c0 .746.302 1.423.791 1.91.49.49 1.166.792 1.91.792h4.024a5.455 5.455 0 0 1 5.455 5.455v6.362a46 46 0 0 0 2.703-1.97V9.816a8.16 8.16 0 0 0-8.158-8.157zm-2.953 19.178c9.371-2.414 11.07-4.487 11.07-9.008v-.838a2.703 2.703 0 0 0-2.703-2.703v3.143c0 3.216-1.282 4.65-8.659 6.822.125.846.223 1.73.292 2.584M76.458 41.71q1.488 0 2.64.505 1.176.48 2.208 1.44l-1.608 1.655q-.816-.672-1.536-.96-.696-.288-1.608-.288-1.728 0-2.784 1.489-1.032 1.463-1.032 4.8 0 2.352.36 3.743.384 1.37 1.128 1.968.744.577 1.896.577 1.248 0 2.28-.625v-4.416h-2.16l-.312-2.303h5.472v8.087q-1.152.77-2.496 1.2a8.9 8.9 0 0 1-2.736.432q-6.672 0-6.672-8.664 0-2.808.912-4.751.936-1.944 2.496-2.904 1.584-.985 3.552-.984m13.537 3.912q.504 0 1.128.168l-.504 2.904a3.7 3.7 0 0 0-1.008-.145q-1.008 0-1.608.793-.576.79-.888 2.4v6.911h-3V45.959h2.616l.24 2.352q.456-1.32 1.224-1.992a2.6 2.6 0 0 1 1.8-.695m12.081 13.031h-2.592l-.168-1.68q-.648 1.032-1.488 1.535-.816.505-1.944.505-1.536 0-2.4-1.008-.84-1.008-.84-2.712v-9.336h3v9.072q0 .887.288 1.296.312.407.96.407 1.248 0 2.184-1.727v-9.048h3zm-7.152-18.793q.696 0 1.152.48.456.456.456 1.129 0 .696-.456 1.176-.456.455-1.152.456-.696 0-1.152-.456a1.64 1.64 0 0 1-.456-1.176q0-.672.456-1.128.48-.48 1.152-.48m4.872 0q.696 0 1.152.48.456.456.456 1.129 0 .696-.456 1.176-.456.455-1.152.456-.696 0-1.176-.456a1.64 1.64 0 0 1-.456-1.176q0-.672.48-1.128.48-.48 1.152-.48m11.771 5.735q1.512 0 2.376 1.008t.864 2.736v9.311h-3V49.75q0-1.008-.336-1.416-.312-.431-.936-.431-.648 0-1.2.48t-1.08 1.415v8.856h-3V45.959h2.616l.216 1.657q.696-.985 1.536-1.489a3.65 3.65 0 0 1 1.944-.527m16.138-4.73v17.785h-2.664l-.168-1.537q-1.248 1.896-3.24 1.896-2.112 0-3.24-1.776t-1.128-4.92q0-1.992.576-3.503.576-1.536 1.608-2.376a3.8 3.8 0 0 1 2.424-.84q1.68 0 2.832 1.344v-6.384zm-5.232 15.889q.696 0 1.224-.385.528-.408 1.008-1.2V49.2q-.456-.673-.96-1.008a1.88 1.88 0 0 0-1.104-.337q-1.056 0-1.656 1.08-.6 1.058-.6 3.36 0 2.377.528 3.433.552 1.032 1.56 1.032m18.048-4.753q0 .216-.072 1.224h-7.176q.144 1.92.816 2.712.672.791 1.872.791.768 0 1.44-.264.672-.263 1.44-.816l1.248 1.704q-1.896 1.657-4.344 1.657-2.664 0-4.104-1.752t-1.44-4.872q0-3.072 1.368-4.92 1.392-1.872 3.864-1.872 2.4 0 3.744 1.656t1.344 4.752m-2.952-.864q0-1.729-.504-2.568-.504-.865-1.608-.864-1.008 0-1.56.84-.528.816-.624 2.735h4.296zm11.639-5.544q1.512 0 2.376 1.008t.864 2.736v9.311h-3V49.75q0-1.008-.336-1.416-.312-.431-.936-.431-.648 0-1.2.48t-1.08 1.415v8.856h-3V45.959h2.616l.216 1.657q.696-.985 1.536-1.489a3.65 3.65 0 0 1 1.944-.527M81.306 28.066q0 1.536-.648 2.76-.648 1.2-1.92 1.896t-3.096.696q-2.76 0-4.224-1.464-1.44-1.464-1.44-3.888V16.474h3.12v11.448q0 1.56.6 2.328.624.744 1.944.744 1.296 0 1.92-.768t.624-2.304V16.474h3.12zm9.308-8.064q1.512 0 2.376 1.008t.864 2.736v9.312h-3v-8.904q0-1.008-.336-1.416-.312-.432-.936-.432-.648 0-1.2.48t-1.08 1.416v8.856h-3V20.362h2.616l.216 1.656q.696-.984 1.536-1.488a3.65 3.65 0 0 1 1.944-.528m13.066 12.456q-.624.48-1.392.72-.744.24-1.536.24-1.752 0-2.688-1.008-.912-1.008-.912-2.808v-7.08h-1.704v-2.16h1.704v-2.808l3-.36v3.168h2.664l-.312 2.16h-2.352v7.056q0 .72.264 1.08.288.336.888.336.648 0 1.32-.408zm10.684-6.048q0 .216-.072 1.224h-7.176q.144 1.92.816 2.712t1.872.792q.768 0 1.44-.264t1.44-.816l1.248 1.704q-1.896 1.656-4.344 1.656-2.664 0-4.104-1.752t-1.44-4.872q0-3.072 1.368-4.92 1.392-1.872 3.864-1.872 2.4 0 3.744 1.656t1.344 4.752m-2.952-.864q0-1.728-.504-2.568-.504-.864-1.608-.864-1.008 0-1.56.84-.528.816-.624 2.736h4.296zm11.208-5.52q.504 0 1.128.168l-.504 2.904a3.7 3.7 0 0 0-1.008-.144q-1.008 0-1.608.792-.576.792-.888 2.4v6.912h-3V20.362h2.616l.24 2.352q.456-1.32 1.224-1.992a2.6 2.6 0 0 1 1.8-.696m9.057-.024q1.512 0 2.376 1.008t.864 2.736v9.312h-3v-8.904q0-1.008-.336-1.416-.312-.432-.936-.432-.648 0-1.2.48t-1.08 1.416v8.856h-3V20.362h2.616l.216 1.656q.696-.984 1.536-1.488a3.65 3.65 0 0 1 1.944-.528m15.945 6.408q0 .216-.072 1.224h-7.176q.144 1.92.816 2.712t1.872.792q.768 0 1.44-.264t1.44-.816l1.248 1.704q-1.896 1.656-4.344 1.656-2.664 0-4.104-1.752t-1.44-4.872q0-3.072 1.368-4.92 1.392-1.872 3.864-1.872 2.4 0 3.744 1.656t1.344 4.752m-2.952-.864q0-1.728-.504-2.568-.504-.864-1.608-.864-1.008 0-1.56.84-.528.816-.624 2.736h4.296zm11.64-5.544q1.488 0 2.352 1.008.888 1.008.888 2.736v9.312h-3v-8.904q0-1.008-.336-1.416-.312-.432-.936-.432-1.2 0-2.28 1.896v8.856h-3v-17.76l3-.312v6.888q.672-.936 1.464-1.392.792-.48 1.848-.48m18.585 0q1.368 0 2.208 1.032.84 1.008.84 2.712v9.312h-2.976V24.13q0-1.848-1.128-1.848-.6 0-1.104.48-.504.456-.984 1.368v8.928h-2.952V24.13q0-1.848-1.128-1.848-.624 0-1.128.48t-.96 1.368v8.928h-2.976V20.362h2.616l.216 1.632q1.32-1.992 3.288-1.992.984 0 1.704.576.72.552 1.056 1.56.672-1.032 1.488-1.584.84-.552 1.92-.552m15.758 6.408q0 .216-.072 1.224h-7.176q.144 1.92.816 2.712t1.872.792q.768 0 1.44-.264t1.44-.816l1.248 1.704q-1.896 1.656-4.344 1.656-2.664 0-4.104-1.752t-1.44-4.872q0-3.072 1.368-4.92 1.392-1.872 3.864-1.872 2.4 0 3.744 1.656t1.344 4.752m-2.952-.864q0-1.728-.504-2.568-.504-.864-1.608-.864-1.008 0-1.56.84-.528.816-.624 2.736h4.296zm11.64-5.544q1.512 0 2.376 1.008t.864 2.736v9.312h-3v-8.904q0-1.008-.336-1.416-.312-.432-.936-.432-.648 0-1.2.48t-1.08 1.416v8.856h-3V20.362h2.616l.216 1.656q.696-.984 1.536-1.488a3.65 3.65 0 0 1 1.944-.528"/>
</svg>
