<svg xmlns="http://www.w3.org/2000/svg" viewBox="0 0 192 74">
  <style>
    .dd-gold {
      fill: #f0b405;
    }
    .dd-red {
      fill: #dc0000;
    }

    @media (prefers-color-scheme: dark) {
      .dd-gold {
        fill: #f2bc4f;;
      }
      .dd-red {
        fill: #ff6b6b;
      }
      .dd-type {
        fill: white;
      }
    }
  </style>
  <path class="dd-gold" d="M15.451 65.374a2.657 2.657 0 0 1-2.603-2.64V59.94l-4.56 4.188a2.664 2.664 0 0 1 .153-3.702l2.183-2.036H5.836c.014-.69.289-1.334.776-1.822a2.64 2.64 0 0 1 1.874-.776h5.01l6.528-6.35c.925-.901 1.025-1.196 1.031-2.11.958-.425 1.609-.587 2.429-.744v.704c0 1.661-.056 2.389-1.467 3.761l-5.735 5.581 2.434.974c.675.221 1.221.69 1.542 1.322.31.615.37 1.312.17 1.969l-4.977-1.913zm13.12 7.96c3.556 0 7.384-.711 10.242-1.9l1.87-.777s-.604-.611-1.437-1.429c-4.73-4.637-6.063-9.285-4.929-15.441-1.276-1.23-1.566-1.541-2.08-2.35-1.038 4.63-2.123 11.744 3.65 18.164-2.182.64-4.84 1.125-7.316 1.125s-5.133-.485-7.315-1.125c5.773-6.42 4.688-13.533 3.65-18.164-.514.809-.804 1.12-2.08 2.35 1.134 6.156-.2 10.804-4.93 15.441-.832.818-1.436 1.429-1.436 1.429l1.87.777c2.858 1.189 6.686 1.9 10.241 1.9m13.12-7.96a2.657 2.657 0 0 0 2.604-2.64V59.94l4.56 4.19c.953-1.07.89-2.72-.153-3.703l-2.184-2.037h4.788a2.63 2.63 0 0 0-.775-1.822 2.64 2.64 0 0 0-1.875-.776h-5.01l-6.527-6.35c-.925-.901-1.025-1.196-1.032-2.11-.958-.425-1.609-.587-2.429-.744v.704c0 1.661.057 2.389 1.468 3.761l5.735 5.581-2.434.974a2.63 2.63 0 0 0-1.542 1.322 2.63 2.63 0 0 0-.17 1.97l4.975-1.914z"/>
  <path class="dd-red" d="M2.702 20.215v31.7A2.7 2.7 0 0 1 0 54.619V18.244a47 47 0 0 0 2.702 1.97m4.064 2.447v27.9a2.7 2.7 0 0 0 2.703-2.703V23.997a45 45 0 0 1-2.703-1.335m6.766 2.942v20.892a2.7 2.7 0 0 0 2.702-2.703V26.436a40 40 0 0 1-2.702-.832m9.614 16.942c-.366-3.124-1-8.24-.432-14.83-.743-.082-1.764-.262-2.534-.402-.581 6.82-.014 12.06.422 15.833 0 0 1.18-.374 2.544-.6M54.44 20.215v31.7a2.7 2.7 0 0 0 2.703 2.703V18.244a46 46 0 0 1-2.703 1.97m-6.766 3.782v23.862a2.7 2.7 0 0 0 2.703 2.702V22.662q-1.327.712-2.703 1.335m-6.766 2.439v17.357a2.703 2.703 0 0 0 2.703 2.703V25.604c-.711.257-2 .647-2.703.832M36.54 43.147c.436-3.772 1.003-9.012.422-15.833-.77.14-1.792.32-2.534.403.567 6.588-.067 11.705-.433 14.83 1.365.226 2.545.6 2.545.6"/>
  <path class="dd-type" d="M34.902 12.338c.59 2.705 1.146 5.53 1.445 9.047-.834.207-1.752.323-2.681.379-.255-3.343-.824-6.194-1.403-8.85a162 162 0 0 1-.641-3.013c-.48-2.4-.005-4.014 1.46-5.162l-4.702-1.77c-1.1-.436-2.005-.158-2.814.718l-.195.202-.637-.198c-.285-.087-.826-.26-1.628-.26-.736 0-1.355.713-1.355 1.62v2.084c1.23 0 2.26.14 3.012.541.862.461 1.54 1.26 1.54 2.721 0 2.722-2.064 7.72-2.783 11.381a17 17 0 0 1-2.698-.372c.674-3.638 2.697-8.198 2.697-10.376 0-1.262-1.14-1.262-2.52-1.262h-1.95v-4.86c0-1.177.31-2.392 1.197-3.163.76-.662 1.576-.909 2.543-.909.819 0 1.307.162 1.825.257C26.3-.235 27.65-.24 29.428.477L38.59 4.33l-.43.17s-4.603 1.716-3.89 4.872c.202.896.398 1.903.63 2.966M8.158 1.658A8.16 8.16 0 0 0 0 9.817v4.391a46 46 0 0 0 2.702 1.971V9.816a5.455 5.455 0 0 1 5.456-5.455h4.023c.745 0 1.42-.302 1.91-.792a2.7 2.7 0 0 0 .792-1.91zm10.337 16.704c-7.707-2.234-9.026-3.662-9.026-6.93V8.287a2.7 2.7 0 0 0-2.703 2.703v.838c0 4.521 1.678 6.594 11.048 9.008.2-.922.352-1.5.681-2.475M42.26 1.659c0 .746.302 1.423.791 1.91.49.49 1.166.792 1.91.792h4.024a5.455 5.455 0 0 1 5.455 5.455v6.362a46 46 0 0 0 2.703-1.97V9.816a8.16 8.16 0 0 0-8.158-8.157zm-2.953 19.178c9.371-2.414 11.07-4.487 11.07-9.008v-.838a2.703 2.703 0 0 0-2.703-2.703v3.143c0 3.216-1.282 4.65-8.659 6.822.125.846.223 1.73.292 2.584M75.8 41.384q1.364 0 2.42.462a6.7 6.7 0 0 1 2.024 1.32l-1.474 1.518q-.748-.615-1.408-.88-.638-.264-1.474-.264-1.584 0-2.552 1.364-.945 1.342-.946 4.4 0 2.156.33 3.432.353 1.254 1.034 1.804.682.528 1.738.528 1.145 0 2.09-.572v-4.048h-1.98l-.286-2.112h5.016v7.414a9.2 9.2 0 0 1-2.288 1.1 8.2 8.2 0 0 1-2.508.396q-6.116 0-6.116-7.942 0-2.574.836-4.356.858-1.782 2.288-2.662 1.452-.902 3.256-.902m12.409 3.586q.462 0 1.034.154l-.462 2.662a3.4 3.4 0 0 0-.924-.132q-.924 0-1.474.726-.529.726-.814 2.2v6.336h-2.75V45.278h2.398l.22 2.156q.417-1.21 1.122-1.826a2.38 2.38 0 0 1 1.65-.638m11.074 11.946h-2.376l-.154-1.54q-.593.946-1.364 1.408-.748.462-1.782.462-1.408 0-2.2-.924-.77-.924-.77-2.486v-8.558h2.75v8.316q0 .814.264 1.188.285.374.88.374 1.144 0 2.002-1.584v-8.294h2.75zM92.727 39.69q.637 0 1.056.44.418.418.418 1.034 0 .638-.418 1.078-.418.418-1.056.418-.637 0-1.056-.418a1.5 1.5 0 0 1-.418-1.078q0-.615.418-1.034a1.44 1.44 0 0 1 1.056-.44m4.466 0q.638 0 1.056.44.418.418.418 1.034 0 .638-.418 1.078-.418.418-1.056.418t-1.078-.418a1.5 1.5 0 0 1-.418-1.078q0-.615.44-1.034a1.44 1.44 0 0 1 1.056-.44m10.791 5.258q1.386 0 2.178.924t.792 2.508v8.536h-2.75v-8.162q0-.924-.308-1.298-.287-.396-.858-.396-.594 0-1.1.44t-.99 1.298v8.118h-2.75V45.278h2.398l.198 1.518q.637-.902 1.408-1.364a3.35 3.35 0 0 1 1.782-.484m14.792-4.334v16.302h-2.442l-.154-1.408q-1.143 1.738-2.97 1.738-1.935 0-2.97-1.628-1.034-1.628-1.034-4.51 0-1.826.528-3.212.528-1.408 1.474-2.178a3.47 3.47 0 0 1 2.222-.77q1.54 0 2.596 1.232v-5.852zm-4.796 14.564q.639 0 1.122-.352.484-.375.924-1.1v-5.478q-.418-.616-.88-.924a1.7 1.7 0 0 0-1.012-.308q-.968 0-1.518.99-.55.968-.55 3.08 0 2.178.484 3.146.506.946 1.43.946m16.544-4.356q0 .198-.066 1.122h-6.578q.132 1.76.748 2.486.617.726 1.716.726.703 0 1.32-.242.617-.241 1.32-.748l1.144 1.562q-1.738 1.518-3.982 1.518-2.442 0-3.762-1.606t-1.32-4.466q0-2.815 1.254-4.51 1.276-1.716 3.542-1.716 2.2 0 3.432 1.518t1.232 4.356m-2.706-.792q0-1.584-.462-2.354-.462-.792-1.474-.792-.924 0-1.43.77-.484.749-.572 2.508h3.938zm10.67-5.082q1.386 0 2.178.924t.792 2.508v8.536h-2.75v-8.162q0-.924-.308-1.298-.287-.396-.858-.396-.594 0-1.1.44t-.99 1.298v8.118h-2.75V45.278h2.398l.198 1.518q.637-.902 1.408-1.364a3.35 3.35 0 0 1 1.782-.484M80.244 28.743q0 1.409-.594 2.53-.594 1.1-1.76 1.738-1.165.639-2.838.638-2.53 0-3.872-1.342-1.32-1.341-1.32-3.564V18.117h2.86v10.494q0 1.43.55 2.134.572.682 1.782.682 1.188 0 1.76-.704.572-.703.572-2.112V18.117h2.86zm8.533-7.392q1.386 0 2.178.924t.792 2.508v8.536h-2.75v-8.162q0-.923-.308-1.298-.287-.396-.858-.396-.594 0-1.1.44t-.99 1.298v8.118h-2.75V21.681h2.398l.198 1.518q.637-.901 1.408-1.364a3.35 3.35 0 0 1 1.782-.484m11.976 11.419a4 4 0 0 1-1.276.66q-.682.22-1.408.22-1.605 0-2.464-.925-.836-.924-.836-2.574v-6.49h-1.562v-1.98h1.562v-2.574l2.75-.33v2.904h2.442l-.286 1.98H97.52v6.468q0 .66.242.99.264.308.814.308.594 0 1.21-.374zm9.794-5.545q0 .198-.066 1.122h-6.578q.132 1.76.748 2.486t1.716.726q.705 0 1.32-.242.616-.24 1.32-.748l1.144 1.562q-1.737 1.518-3.982 1.518-2.442 0-3.762-1.606-1.32-1.605-1.32-4.466 0-2.815 1.254-4.51 1.277-1.716 3.542-1.716 2.2 0 3.432 1.518t1.232 4.356m-2.706-.792q0-1.584-.462-2.354-.462-.792-1.474-.792-.923 0-1.43.77-.483.75-.572 2.508h3.938zm10.274-5.06q.462 0 1.034.154l-.462 2.662a3.4 3.4 0 0 0-.924-.132q-.924 0-1.474.726-.528.726-.814 2.2v6.336h-2.75V21.681h2.398l.22 2.156q.419-1.21 1.122-1.826a2.38 2.38 0 0 1 1.65-.638m8.302-.022q1.386 0 2.178.924t.792 2.508v8.536h-2.75v-8.162q0-.923-.308-1.298-.285-.396-.858-.396-.594 0-1.1.44-.505.44-.99 1.298v8.118h-2.75V21.681h2.398l.198 1.518q.639-.901 1.408-1.364a3.35 3.35 0 0 1 1.782-.484m14.617 5.874q0 .198-.066 1.122h-6.578q.132 1.76.748 2.486.615.726 1.716.726.703 0 1.32-.242a6.2 6.2 0 0 0 1.32-.748l1.144 1.562q-1.738 1.518-3.982 1.518-2.442 0-3.762-1.606-1.32-1.605-1.32-4.466 0-2.815 1.254-4.51 1.275-1.716 3.542-1.716 2.199 0 3.432 1.518 1.232 1.518 1.232 4.356m-2.706-.792q0-1.584-.462-2.354-.463-.792-1.474-.792-.924 0-1.43.77-.485.75-.572 2.508h3.938zm10.669-5.082q1.364 0 2.156.924.814.924.814 2.508v8.536h-2.75v-8.162q0-.923-.308-1.298-.285-.396-.858-.396-1.1 0-2.09 1.738v8.118h-2.75V17.04l2.75-.286v6.314q.616-.858 1.342-1.276.726-.44 1.694-.44m17.037-.001q1.254 0 2.024.946.77.924.77 2.486v8.536H166.1v-8.184q0-1.694-1.034-1.694-.55 0-1.012.44-.462.42-.902 1.254v8.184h-2.706v-8.184q0-1.694-1.034-1.694-.572 0-1.034.44-.462.441-.88 1.254v8.184h-2.728V21.681h2.398l.198 1.496q1.21-1.826 3.014-1.826.902 0 1.562.528.66.507.968 1.43.616-.945 1.364-1.452.77-.506 1.76-.506m14.445 5.874q0 .198-.066 1.122h-6.578q.132 1.76.748 2.486.617.726 1.716.726.703 0 1.32-.242.617-.24 1.32-.748l1.144 1.562q-1.738 1.518-3.982 1.518-2.442 0-3.762-1.606-1.32-1.605-1.32-4.466 0-2.815 1.254-4.51 1.276-1.716 3.542-1.716 2.2 0 3.432 1.518t1.232 4.356m-2.706-.792q0-1.584-.462-2.354-.462-.792-1.474-.792-.924 0-1.43.77-.484.75-.572 2.508h3.938zm10.67-5.082q1.386 0 2.178.924t.792 2.508v8.536h-2.75v-8.162q0-.923-.308-1.298-.286-.396-.858-.396-.594 0-1.1.44t-.99 1.298v8.118h-2.75V21.681h2.398l.198 1.518q.637-.901 1.408-1.364a3.35 3.35 0 0 1 1.782-.484"/>
</svg>
